# xmcd
#
# Track frame offsets:
#	150
#	9427
#	17927
#	28227
#	43807
#	56850
#
# Disc length: 933 seconds
#
# Revision: 1
# Processed by: cddbd v1.5.1PL0 Copyright (c) Steve Scherf et al.
# Submitted via: CDex 1.50Beta5
#
DISCID=4d03a306
DTITLE=Smash Raid × SHACHI - Goout!
DYEAR=2002
DGENRE=Alternative
TTITLE0=BREAK OUT
TTITLE1=Life
TTITLE2=ココロ
TTITLE3=Nuclear Bomb Generation
TTITLE4=ゴールライン
TTITLE5=We Go!!
EXTD=
EXTT0=
EXTT1=
EXTT2=
EXTT3=
EXTT4=
EXTT5=
PLAYORDER=
